<?xml version="1.0" encoding="UTF-8"?>
<svg xmlns="http://www.w3.org/2000/svg" width="900" height="210" viewBox="0 0 900 210" role="img" aria-label="Flujo de Briefs visuales financieros">
<defs><marker id="f" viewBox="0 0 10 10" refX="9" refY="5" markerWidth="6" markerHeight="6" orient="auto"><path d="M0 0 L10 5 L0 10 z" fill="#9db9d6"/></marker></defs>
<style>
 .b{fill:#f5f8fd;stroke:#cfe0f2;stroke-width:1.3}
 .b1{fill:#dff3fc;stroke:#9fd4ef;stroke-width:1.3}
 .n{font-family:'Open Sans',Helvetica,Arial,sans-serif;font-size:11.5px;fill:#173b6c}
 .i{font-family:Poppins,Helvetica,Arial,sans-serif;font-size:9.5px;font-weight:600;letter-spacing:.8px;fill:#a8b6cc}
 .lb{font-family:Poppins,Helvetica,Arial,sans-serif;font-size:10px;font-weight:600;letter-spacing:1.1px;fill:#0b6d9e}
 .s{font-family:'Open Sans',Helvetica,Arial,sans-serif;font-size:11px;fill:#5f7391}
 .ln{stroke:#9db9d6;stroke-width:1.6;fill:none;marker-end:url(#f)}
</style>
<rect width="900" height="210" fill="#fff"/>
<text class="lb" x="16" y="26">FLUJO</text>
<rect class="b" x="127" y="52" width="118" height="56" rx="7"/>
<text class="i" x="137" y="69">01</text>
<text class="n" x="186.0" y="87" text-anchor="middle">Ruteo de</text>
<text class="n" x="186.0" y="101" text-anchor="middle">estilo</text>
<path class="ln" d="M245 80 L256 80"/>
<rect class="b" x="259" y="52" width="118" height="56" rx="7"/>
<text class="i" x="269" y="69">02</text>
<text class="n" x="318.0" y="94" text-anchor="middle">Módulos</text>
<path class="ln" d="M377 80 L388 80"/>
<rect class="b" x="391" y="52" width="118" height="56" rx="7"/>
<text class="i" x="401" y="69">03</text>
<text class="n" x="450.0" y="94" text-anchor="middle">Redacción</text>
<path class="ln" d="M509 80 L520 80"/>
<rect class="b1" x="523" y="52" width="118" height="56" rx="7"/>
<text class="i" x="533" y="69">04</text>
<text class="n" x="582.0" y="94" text-anchor="middle">Puntaje</text>
<path class="ln" d="M641 80 L652 80"/>
<rect class="b" x="655" y="52" width="118" height="56" rx="7"/>
<text class="i" x="665" y="69">05</text>
<text class="n" x="714.0" y="94" text-anchor="middle">Iteración</text>
<text class="s" x="16" y="150">Los datos exactos se sobreponen después en edición: el generador produce la estructura visual, no la cifra.</text>
</svg>